<svg width="637" height="334" viewBox="0 0 637 334" fill="none" xmlns="http://www.w3.org/2000/svg">
<g filter="url(#filter0_g_135_313)">
<path d="M329.339 43.1809C333.474 52.2009 340.087 52.8267 347.138 52.7504L351.482 52.7034C361.002 52.6005 364.943 69.3653 365.105 84.2948C365.37 108.84 382.911 126.85 404.462 98.0997L425.571 61.6851C430.461 56.5525 428.563 56.573 433.721 56.5172C451.481 51.6217 458.913 87.6175 447.422 106.122L418.097 146.438C406.712 164.771 406.146 193.826 416.759 213.601C436.256 249.927 458.771 227.938 458.26 180.694L457.291 91.1851C457.105 73.907 465.885 59.8037 476.902 59.6845C487.92 59.5653 497.003 73.4754 497.19 90.7535L497.495 118.921C497.708 138.621 508.065 154.482 520.627 154.346C534.226 154.199 544.842 156.348 552.473 160.795C560.101 165.054 566.797 171.869 572.555 181.244C577.214 189.121 580.679 198.053 582.953 208.033C585.228 218.012 586.426 228.573 586.547 239.709C586.689 252.919 585.433 265.199 582.788 276.552C580.26 287.716 576.633 296.916 571.896 304.14C566.212 312.694 559.837 318.705 552.775 322.179C545.831 325.652 535.617 327.462 522.138 327.608L458.887 324.658C443.801 324.821 429.407 314.294 419.715 296.011L381.286 223.516C378.986 219.178 374.817 218.881 372.329 222.877C371.217 224.662 366.649 227.117 366.677 229.624L367.377 294.36C367.564 311.638 362.742 325.698 351.724 325.817C340.707 325.937 331.624 312.026 331.437 294.748L329.179 85.9882C329.145 82.8497 327.495 80.323 325.493 80.3447C324.577 80.3546 323.688 79.8193 323.007 78.8466L321.778 77.0927C316.697 69.8384 304.987 74.2223 305.103 84.9438L307.258 284.082C307.444 301.357 302.283 316.725 291.267 316.844C280.251 316.963 271.169 303.056 270.983 285.781L270.715 261.01C270.383 230.362 254.272 205.689 234.729 205.9C215.186 206.112 199.612 231.128 199.943 261.775L200.211 286.546C200.398 303.821 191.62 317.922 180.604 318.041C169.588 318.16 164.544 309.589 164.357 292.314L162.131 86.4904C161.944 69.2153 168.74 49.7564 177.701 49.6595C188.716 49.5403 197.798 63.4479 197.985 80.723L198.184 99.1274C198.481 126.567 212.906 148.658 230.403 148.468L237.811 148.388C255.308 148.199 269.252 125.801 268.955 98.3618L268.577 63.3834C268.489 55.2619 272.616 48.6327 277.795 48.5767L280.697 48.5453C288.175 48.4644 291.626 34.0544 286.067 26.1204C280.509 18.1863 283.96 3.7763 291.438 3.69541L304.223 3.55711C308.557 3.51023 312.653 6.78575 315.195 12.3305L329.339 43.1809ZM636.234 293.668C636.42 310.947 636.328 326.373 625.31 326.492C614.292 326.611 605.209 312.701 605.022 295.423L602.796 89.6111C602.609 72.333 611.389 58.2297 622.407 58.1106C633.424 57.9914 633.82 70.5781 634.007 87.8562L636.234 293.668ZM71.2762 43.4066C81.746 43.2936 91.3514 46.5799 100.09 53.2801C104.347 56.4995 108.276 60.313 111.878 64.7185C115.706 69.4 122.245 65.4659 122.163 57.8909C122.116 53.4971 124.348 49.9107 127.15 49.8804L142.026 49.7195C153.044 49.6003 151.9 61.7831 152.087 79.0612L154.313 284.873C154.5 302.152 155.947 317.982 144.93 318.101L129.808 318.265C127.142 318.294 124.944 314.928 124.898 310.746C124.822 303.718 118.932 300.187 115.48 304.615C111.403 309.845 106.984 314.21 102.225 317.71C93.6273 324.031 84.1529 327.248 73.8037 327.36C46.7287 317.788 40.5948 310.412 25.3717 282.831C10.1461 255.059 2.32033 221.349 1.89159 181.714C1.43677 139.628 9.07162 105.568 24.7981 79.5385C40.5228 53.3205 49.2638 50.7229 71.2762 43.4066ZM498.867 245.755C499.038 261.547 507.339 274.261 517.409 274.152C523.068 274.468 527.397 274.134 530.395 273.158C533.392 271.993 535.963 270.361 538.107 268.261C540.846 265.589 542.976 261.974 544.491 257.427C546.123 252.693 546.905 247.119 546.836 240.707C546.776 235.235 545.942 230.236 544.33 225.725C543.575 223.443 542.651 221.307 541.561 219.317C539.369 215.32 536.391 212.554 533.165 211.12C532.239 210.709 531.269 210.344 530.256 210.025C527.476 208.922 523.07 208.205 517.049 207.892C506.782 208.003 498.601 221.145 498.775 237.245L498.867 245.755ZM76.7582 99.4039C62.3162 99.5602 50.8531 107.995 42.3676 124.697C33.8821 141.4 29.7668 161.923 30.0302 186.27C30.0512 210.429 34.5463 230.67 43.5091 246.994C52.4702 263.13 64.1724 271.123 78.6141 270.967C91.8516 270.823 103.143 263.336 112.491 248.513C121.838 233.5 126.369 212.589 126.079 185.789C125.778 158.048 120.789 136.684 111.119 121.689C101.449 106.694 89.9957 99.2616 76.7582 99.4039Z" fill="white"/>
<path d="M329.339 43.1809C333.474 52.2009 340.087 52.8267 347.138 52.7504L351.482 52.7034C361.002 52.6005 364.943 69.3653 365.105 84.2948C365.37 108.84 382.911 126.85 404.462 98.0997L425.571 61.6851C430.461 56.5525 428.563 56.573 433.721 56.5172C451.481 51.6217 458.913 87.6175 447.422 106.122L418.097 146.438C406.712 164.771 406.146 193.826 416.759 213.601C436.256 249.927 458.771 227.938 458.26 180.694L457.291 91.1851C457.105 73.907 465.885 59.8037 476.902 59.6845C487.92 59.5653 497.003 73.4754 497.19 90.7535L497.495 118.921C497.708 138.621 508.065 154.482 520.627 154.346C534.226 154.199 544.842 156.348 552.473 160.795C560.101 165.054 566.797 171.869 572.555 181.244C577.214 189.121 580.679 198.053 582.953 208.033C585.228 218.012 586.426 228.573 586.547 239.709C586.689 252.919 585.433 265.199 582.788 276.552C580.26 287.716 576.633 296.916 571.896 304.14C566.212 312.694 559.837 318.705 552.775 322.179C545.831 325.652 535.617 327.462 522.138 327.608L458.887 324.658C443.801 324.821 429.407 314.294 419.715 296.011L381.286 223.516C378.986 219.178 374.817 218.881 372.329 222.877C371.217 224.662 366.649 227.117 366.677 229.624L367.377 294.36C367.564 311.638 362.742 325.698 351.724 325.817C340.707 325.937 331.624 312.026 331.437 294.748L329.179 85.9882C329.145 82.8497 327.495 80.323 325.493 80.3447C324.577 80.3546 323.688 79.8193 323.007 78.8466L321.778 77.0927C316.697 69.8384 304.987 74.2223 305.103 84.9438L307.258 284.082C307.444 301.357 302.283 316.725 291.267 316.844C280.251 316.963 271.169 303.056 270.983 285.781L270.715 261.01C270.383 230.362 254.272 205.689 234.729 205.9C215.186 206.112 199.612 231.128 199.943 261.775L200.211 286.546C200.398 303.821 191.62 317.922 180.604 318.041C169.588 318.16 164.544 309.589 164.357 292.314L162.131 86.4904C161.944 69.2153 168.74 49.7564 177.701 49.6595C188.716 49.5403 197.798 63.4479 197.985 80.723L198.184 99.1274C198.481 126.567 212.906 148.658 230.403 148.468L237.811 148.388C255.308 148.199 269.252 125.801 268.955 98.3618L268.577 63.3834C268.489 55.2619 272.616 48.6327 277.795 48.5767L280.697 48.5453C288.175 48.4644 291.626 34.0544 286.067 26.1204C280.509 18.1863 283.96 3.7763 291.438 3.69541L304.223 3.55711C308.557 3.51023 312.653 6.78575 315.195 12.3305L329.339 43.1809ZM636.234 293.668C636.42 310.947 636.328 326.373 625.31 326.492C614.292 326.611 605.209 312.701 605.022 295.423L602.796 89.6111C602.609 72.333 611.389 58.2297 622.407 58.1106C633.424 57.9914 633.82 70.5781 634.007 87.8562L636.234 293.668ZM71.2762 43.4066C81.746 43.2936 91.3514 46.5799 100.09 53.2801C104.347 56.4995 108.276 60.313 111.878 64.7185C115.706 69.4 122.245 65.4659 122.163 57.8909C122.116 53.4971 124.348 49.9107 127.15 49.8804L142.026 49.7195C153.044 49.6003 151.9 61.7831 152.087 79.0612L154.313 284.873C154.5 302.152 155.947 317.982 144.93 318.101L129.808 318.265C127.142 318.294 124.944 314.928 124.898 310.746C124.822 303.718 118.932 300.187 115.48 304.615C111.403 309.845 106.984 314.21 102.225 317.71C93.6273 324.031 84.1529 327.248 73.8037 327.36C46.7287 317.788 40.5948 310.412 25.3717 282.831C10.1461 255.059 2.32033 221.349 1.89159 181.714C1.43677 139.628 9.07162 105.568 24.7981 79.5385C40.5228 53.3205 49.2638 50.7229 71.2762 43.4066ZM498.867 245.755C499.038 261.547 507.339 274.261 517.409 274.152C523.068 274.468 527.397 274.134 530.395 273.158C533.392 271.993 535.963 270.361 538.107 268.261C540.846 265.589 542.976 261.974 544.491 257.427C546.123 252.693 546.905 247.119 546.836 240.707C546.776 235.235 545.942 230.236 544.33 225.725C543.575 223.443 542.651 221.307 541.561 219.317C539.369 215.32 536.391 212.554 533.165 211.12C532.239 210.709 531.269 210.344 530.256 210.025C527.476 208.922 523.07 208.205 517.049 207.892C506.782 208.003 498.601 221.145 498.775 237.245L498.867 245.755ZM76.7582 99.4039C62.3162 99.5602 50.8531 107.995 42.3676 124.697C33.8821 141.4 29.7668 161.923 30.0302 186.27C30.0512 210.429 34.5463 230.67 43.5091 246.994C52.4702 263.13 64.1724 271.123 78.6141 270.967C91.8516 270.823 103.143 263.336 112.491 248.513C121.838 233.5 126.369 212.589 126.079 185.789C125.778 158.048 120.789 136.684 111.119 121.689C101.449 106.694 89.9957 99.2616 76.7582 99.4039Z" stroke="white"/>
</g>
<defs>
<filter id="filter0_g_135_313" x="1.77231" y="3.45649" width="634.599" height="324.252" filterUnits="userSpaceOnUse" color-interpolation-filters="sRGB">
<feFlood flood-opacity="0" result="BackgroundImageFix"/>
<feBlend mode="normal" in="SourceGraphic" in2="BackgroundImageFix" result="shape"/>
<feTurbulence type="fractalNoise" baseFrequency="0.99900001287460327 0.99900001287460327" numOctaves="3" seed="9024" />
<feDisplacementMap in="shape" scale="0.20000000298023224" xChannelSelector="R" yChannelSelector="G" result="displacedImage" width="100%" height="100%" />
<feMerge result="effect1_texture_135_313">
<feMergeNode in="displacedImage"/>
</feMerge>
</filter>
</defs>
</svg>
