<svg width="1336" height="427" viewBox="0 0 1336 427" fill="none" xmlns="http://www.w3.org/2000/svg">
<path d="M1261.63 121.606V78.0596H1278.85V121.606C1296.51 123.922 1310.45 136.971 1320.67 160.751C1330.89 184.377 1336 213.794 1336 249.002C1336 283.437 1331.05 312.7 1321.14 336.789C1311.24 360.879 1297.14 374.159 1278.85 376.63V420.408H1261.63V376.63C1245.22 375.085 1231.57 362.886 1220.65 340.032C1209.74 317.024 1204.28 286.68 1204.28 249.002C1204.28 211.169 1209.71 180.903 1220.56 158.203C1231.47 135.504 1245.16 123.304 1261.63 121.606ZM1278.85 160.056V337.948C1290.71 336.558 1300.04 328.142 1306.86 312.7C1313.67 297.258 1317.08 276.025 1317.08 249.002C1317.08 222.442 1313.73 201.441 1307.05 185.999C1300.36 170.402 1290.96 161.755 1278.85 160.056ZM1261.63 160.288C1250.21 161.523 1240.97 169.785 1233.9 185.072C1226.84 200.36 1223.3 221.67 1223.3 249.002C1223.3 276.025 1226.77 297.258 1233.71 312.7C1240.71 328.142 1250.02 336.481 1261.63 337.716V160.288Z" fill="white"/>
<path d="M1084.3 420.408V80.8398H1136.63C1145.84 80.8398 1152.87 81.9208 1157.73 84.0827C1164.54 86.8622 1170.25 92.1897 1174.85 100.065C1179.46 107.786 1183.15 118.673 1185.93 132.725C1188.76 146.777 1190.18 162.219 1190.18 179.051C1190.18 207.927 1186.43 232.403 1178.92 252.477C1171.42 272.397 1157.85 282.357 1138.23 282.357H1102.66V420.408H1084.3ZM1102.66 242.285H1138.52C1150.38 242.285 1158.8 236.881 1163.78 226.071C1168.77 215.262 1171.26 200.052 1171.26 180.44C1171.26 166.234 1169.78 154.112 1166.81 144.075C1163.91 133.883 1160.06 127.166 1155.27 123.923C1152.18 121.915 1146.47 120.912 1138.14 120.912H1102.66V242.285Z" fill="white"/>
<path d="M955.232 420.406V80.8375H1055.53V120.909H973.59V224.911H1050.33V264.751H973.59V380.334H1058.75V420.406H955.232ZM978.794 59.9908V12.5068H996.583V59.9908H978.794ZM1014.09 59.9908V12.5068H1031.88V59.9908H1014.09Z" fill="white"/>
<path d="M913.787 301.349L932.144 312.698C928.296 349.605 921.357 377.786 911.326 397.243C901.359 416.546 889.153 426.197 874.707 426.197C859.756 426.197 847.581 418.785 838.182 403.96C828.846 388.982 821.717 367.363 816.797 339.104C811.939 310.845 809.511 280.502 809.511 248.074C809.511 212.712 812.255 181.905 817.743 155.654C823.294 129.248 831.148 109.251 841.304 95.6619C851.524 81.9185 862.753 75.0469 874.991 75.0469C888.869 75.0469 900.539 83.6944 910.002 100.989C919.464 118.284 926.056 142.605 929.778 173.953L911.705 184.376C908.488 159.669 903.82 141.679 897.701 130.406C891.582 119.134 883.885 113.497 874.612 113.497C863.951 113.497 855.025 119.751 847.834 132.259C840.705 144.767 835.69 161.599 832.788 182.754C829.887 203.756 828.436 225.451 828.436 247.842C828.436 276.719 830.139 301.966 833.545 323.585C837.015 345.049 842.377 361.109 849.631 371.764C856.886 382.419 864.74 387.746 873.193 387.746C883.475 387.746 892.181 380.489 899.309 365.973C906.438 351.458 911.263 329.916 913.787 301.349Z" fill="white"/>
<path d="M621.87 80.8386H638.524V349.76L712.331 80.8386H730.783V420.407H714.129V152.18L640.227 420.407H621.87V80.8386ZM690.851 0H702.49C701.544 19.3024 698.642 34.1267 693.785 44.4728C688.99 54.8189 682.587 59.992 674.576 59.992C666.501 59.992 660.035 54.8961 655.178 44.7044C650.384 34.3583 647.513 19.4569 646.567 0H658.206C659.089 10.5005 660.824 18.3759 663.41 23.6262C666.06 28.722 669.592 31.2699 674.008 31.2699C679.118 31.2699 682.966 28.7992 685.552 23.8578C688.202 18.762 689.968 10.8094 690.851 0Z" fill="white"/>
<path d="M477.097 420.408L530.37 80.8398H550.147L606.921 420.408H586.009L569.828 317.565H511.824L496.589 420.408H477.097ZM517.123 280.968H564.151L549.673 186.926C545.258 158.358 541.977 134.887 539.833 116.511C538.066 138.284 535.574 159.903 532.357 181.367L517.123 280.968Z" fill="white"/>
<path d="M415.59 420.408V120.912H369.887V80.8398H479.84V120.912H433.947V420.408H415.59Z" fill="white"/>
<path d="M250.943 420.408L304.217 80.8398H323.993L380.768 420.408H359.856L343.675 317.565H285.67L270.436 420.408H250.943ZM290.969 280.968H337.998L323.52 186.926C319.104 158.358 315.824 134.887 313.679 116.511C311.913 138.284 309.421 159.903 306.204 181.367L290.969 280.968Z" fill="white"/>
<path d="M142.6 420.408V80.8398H194.643C205.241 80.8398 213.726 84.3143 220.097 91.2632C226.531 98.0576 231.546 108.635 235.142 122.996C238.801 137.203 240.63 152.104 240.63 167.701C240.63 182.216 239.022 195.882 235.805 208.699C232.587 221.516 227.73 231.862 221.232 239.738C229.622 245.76 236.057 256.029 240.536 270.544C245.078 285.06 247.349 302.2 247.349 321.966C247.349 337.871 245.961 352.695 243.185 366.439C240.473 380.028 237.098 390.528 233.06 397.94C229.023 405.352 223.945 410.989 217.826 414.849C211.77 418.555 204.326 420.408 195.495 420.408H142.6ZM160.957 223.523H190.953C199.09 223.523 204.925 222.211 208.458 219.586C213.126 216.189 216.627 210.552 218.961 202.677C221.359 194.801 222.557 184.919 222.557 173.028C222.557 161.756 221.453 151.873 219.245 143.38C217.037 134.732 213.883 128.864 209.783 125.776C205.682 122.533 198.649 120.912 188.682 120.912H160.957V223.523ZM160.957 380.336H195.495C201.424 380.336 205.588 379.796 207.985 378.715C212.212 376.862 215.744 373.774 218.583 369.45C221.422 365.126 223.756 358.872 225.585 350.688C227.414 342.349 228.329 332.775 228.329 321.966C228.329 309.303 227.004 298.34 224.355 289.075C221.706 279.655 218.015 273.092 213.284 269.386C208.616 265.526 201.866 263.595 193.034 263.595H160.957V380.336Z" fill="white"/>
<path d="M0 420.408L53.652 243.444L6.33983 80.8398H28.198L53.3681 167.932C58.604 186 62.3258 199.897 64.5337 209.626C67.6248 197.272 71.2836 184.378 75.5102 170.944L103.424 80.8398H123.39L74.6585 240.896L127.175 420.408H104.465L69.5488 299.266C67.5933 292.317 65.5746 284.751 63.4929 276.567C60.4018 288.92 58.1939 297.413 56.8692 302.046L22.0475 420.408H0Z" fill="white"/>
</svg>
