<svg width="1285" height="478" viewBox="0 0 1285 478" fill="none" xmlns="http://www.w3.org/2000/svg">
<path d="M1214.73 400.034V106.312H1164.74V67.0127H1285V106.312H1234.81V400.034H1214.73Z" fill="white"/>
<path d="M1045.56 400.035V67.0132H1155.26V106.312H1065.64V208.309H1149.57V247.381H1065.64V360.735H1158.78V400.035H1045.56ZM1071.33 46.5685V0H1090.79V46.5685H1071.33ZM1109.93 46.5685V0H1129.39V46.5685H1109.93Z" fill="white"/>
<path d="M925.861 67.0127H1018.18V360.735H1031.84V477.724H1013.93V400.034H913.649V477.724H895.745V360.735H907.543C919.755 320.3 925.861 238.597 925.861 115.626V67.0127ZM998.099 106.312H945.214V123.349C945.214 151.669 944.041 190.438 941.696 239.657C939.419 288.724 934.9 329.083 928.138 360.735H998.099V106.312Z" fill="white"/>
<path d="M818.684 67.0133V212.852C828.551 212.852 835.312 208.915 838.969 201.04C842.695 193.013 847.421 174.31 853.147 144.93C857.356 123.123 860.806 107.751 863.497 98.8162C866.256 89.7296 870.155 82.1575 875.191 76.0998C880.228 69.8907 885.747 66.7861 891.75 66.7861C898.304 66.7861 902.375 66.9376 903.962 67.2405V105.404C903.341 105.404 902.03 105.328 900.029 105.177C897.821 105.025 896.476 104.95 895.993 104.95C889.577 104.95 884.816 108.357 881.711 115.172C878.537 121.987 874.915 136.525 870.844 158.787C866.429 182.867 862.6 199.298 859.357 208.082C856.114 216.714 851.422 223.907 845.282 229.662C855.217 235.72 864.842 255.559 874.156 289.179L905.411 400.035H880.573L855.217 309.624C848.456 285.696 842.764 268.81 838.141 258.966C833.518 249.123 827.033 244.201 818.684 244.201V400.035H798.09V244.201C791.466 244.201 785.602 248.062 780.496 255.786C775.459 263.358 769.56 279.79 762.799 305.08L761.557 309.624L736.201 400.035H711.26L742.514 289.179C752.036 255.407 761.695 235.568 771.492 229.662C766.042 224.816 761.591 218.38 758.142 210.353C754.692 202.175 750.587 184.987 745.826 158.787C741.479 135.011 737.754 120.094 734.649 114.036C731.544 107.978 726.922 104.95 720.781 104.95L712.709 105.404V67.2405C713.468 66.9376 717.331 66.7861 724.3 66.7861C730.923 66.7861 736.65 69.815 741.479 75.8727C746.378 81.7789 750.207 89.2753 752.967 98.3618C755.727 107.297 759.28 122.82 763.627 144.93C769.422 174.764 774.114 193.468 777.702 201.04C781.358 208.612 788.154 212.549 798.09 212.852V67.0133H818.684Z" fill="white"/>
<path d="M531.061 400.034L589.327 67.0127H610.956L673.052 400.034H650.18L632.483 299.174H569.042L552.38 400.034H531.061ZM574.838 263.282H626.273L610.439 171.053C605.609 143.037 602.022 120.017 599.676 101.996C597.744 123.349 595.019 144.551 591.5 165.602L574.838 263.282Z" fill="white"/>
<path d="M405.773 400.034V67.0127H425.851V203.765H504.712V67.0127H524.789V400.034H504.712V243.064H425.851V400.034H405.773Z" fill="white"/>
<path d="M287.73 67.0127H382.735V400.034H362.658V106.312H307.807V277.82C307.807 312.652 307.048 338.17 305.53 354.374C304.081 370.579 300.976 383.224 296.216 392.311C291.455 401.246 285.418 405.713 278.105 405.713C273.689 405.713 268.377 403.896 262.167 400.261L265.582 361.189C268.894 364.218 271.723 365.732 274.069 365.732C278.622 365.732 282.037 362.022 284.314 354.601C286.591 347.029 287.73 329.311 287.73 301.445V67.0127Z" fill="white"/>
<path d="M118.456 237.84C118.456 182.564 125.218 139.327 138.74 108.13C152.263 76.7817 169.719 61.1074 191.107 61.1074C205.113 61.1074 217.739 68.4524 228.986 83.1423C240.232 97.8322 248.787 118.353 254.652 144.704C260.585 170.903 263.552 200.661 263.552 233.979C263.552 267.75 260.447 297.963 254.238 324.617C248.028 351.271 239.231 371.488 227.847 385.269C216.463 398.899 204.182 405.714 191.004 405.714C176.722 405.714 163.958 398.142 152.712 382.998C141.466 367.854 132.945 347.182 127.149 320.982C121.354 294.783 118.456 267.069 118.456 237.84ZM139.154 238.522C139.154 278.654 144.053 310.306 153.85 333.476C163.717 356.495 176.067 368.005 190.9 368.005C206.01 368.005 218.429 356.344 228.158 333.022C237.955 309.7 242.853 276.61 242.853 233.752C242.853 206.643 240.749 183.018 236.54 162.877C232.401 142.583 226.295 126.909 218.222 115.854C210.219 104.647 201.215 99.0437 191.211 99.0437C176.998 99.0437 164.751 109.796 154.471 131.301C144.26 152.654 139.154 188.395 139.154 238.522Z" fill="white"/>
<path d="M0 400.034V67.0127H56.9206C68.5117 67.0127 77.7915 70.4201 84.76 77.235C91.7974 83.8985 97.2825 94.2723 101.215 108.356C105.217 122.289 107.218 136.903 107.218 152.199C107.218 166.435 105.458 179.837 101.94 192.407C98.4209 204.977 93.1083 215.123 86.0019 222.847C95.1782 228.753 102.216 238.824 107.114 253.059C112.082 267.295 114.566 284.105 114.566 303.49C114.566 319.088 113.048 333.627 110.012 347.105C107.045 360.432 103.354 370.73 98.9384 377.999C94.5227 385.268 88.9687 390.796 82.2762 394.582C75.6527 398.217 67.5113 400.034 57.852 400.034H0ZM20.0775 206.945H52.8844C61.7847 206.945 68.1667 205.658 72.0304 203.084C77.1361 199.752 80.9653 194.224 83.5181 186.501C86.1399 178.777 87.4508 169.085 87.4508 157.424C87.4508 146.368 86.2434 136.676 83.8285 128.347C81.4137 119.866 77.964 114.111 73.4793 111.082C68.9947 107.902 61.3018 106.312 50.4006 106.312H20.0775V206.945ZM20.0775 360.735H57.852C64.3375 360.735 68.8912 360.205 71.513 359.145C76.1356 357.327 79.9993 354.299 83.1041 350.058C86.2089 345.818 88.7617 339.684 90.7625 331.658C92.7634 323.48 93.7638 314.091 93.7638 303.49C93.7638 291.071 92.3149 280.319 89.4171 271.232C86.5193 261.995 82.4831 255.558 77.3085 251.924C72.2029 248.138 64.8205 246.245 55.1613 246.245H20.0775V360.735Z" fill="white"/>
</svg>
